<svg viewBox="0 0 4005 2451" xmlns="http://www.w3.org/2000/svg" xmlns:xlink="http://www.w3.org/1999/xlink">
	<g transform="matrix(1,0,0,1,0,-0.910301)">
        <g transform="matrix(1,0,0,1,-23.1167,-12.5612)">
            <g transform="matrix(1,0,0,1,23.1167,420.311)">
                <path class="background curve-1" d="M4000,200L4000,2043.25L0,2043.25L0,1498.38C245.64,1375.55 335.9,1490.86 574,1520.94C812.1,1551.02 955,1400.62 1000,1365.69C1074.58,1307.69 1200,1265.77 1307.63,1278.82C1440.57,1294.94 1545.03,1379.36 1616.18,1460.34C1689.26,1543.53 1764.88,1541.28 1813.32,1532.41C1847.08,1526.22 1895.32,1503.36 1973.26,1465.99C2105.08,1402.73 2297.99,1428.26 2433.69,1535.79C2474.69,1568.3 2518.42,1596.79 2551.56,1622.58C2681.39,1723.77 2873.56,1717.73 3000,1494.02C3024.45,1450.76 3036.16,1395.02 3034.54,1337.72C3032.73,1273.41 3022.72,1245.38 3011.11,1217.89C2985.38,1156.95 2934.94,1112.52 2888.78,1069.55C2786.29,974.17 2769.07,868.25 2777.68,789.15C2786.29,710.05 2845.22,634.15 2861.55,609.15C2917.18,523.78 2975.67,494.15 3000,293.59C3004,196.34 3040.86,93.84 3132.43,37.8C3224,-18.24 3382.54,-10.03 3468.65,50.1C3546.05,104.16 3624.46,194.1 3705.09,224.1C3785.72,254.1 3914.2,242.76 4000,200Z" style="fill-rule:nonzero;"/>
            </g>
        </g>
        <g transform="matrix(1,0,0,1,-23.1167,-12.5612)">
            <g transform="matrix(1,0,0,1,23.1167,285.561)">
                <path class="background curve-2" d="M4000,302.78L4000,2178L0,2178L0,1633.15C245.64,1510.32 335.9,1625.63 574,1655.71C812.1,1685.79 955,1535.39 1000,1500.46C1074.58,1442.46 1200,1400.54 1307.63,1413.59C1440.57,1429.71 1545.03,1514.12 1616.18,1595.11C1689.26,1678.29 1764.88,1676.05 1813.32,1667.18C1847.08,1660.99 1895.32,1638.18 1973.26,1600.76C2105.08,1537.5 2297.99,1563.03 2433.69,1670.56C2474.69,1703.07 2518.42,1731.56 2551.56,1757.34C2681.39,1858.54 2878.35,1855.12 3000,1628.79C3043.89,1547.12 3038.21,1439.55 3014.21,1366.79C2992.57,1301.19 2934.92,1247.28 2888.78,1204.29C2773.53,1097 2738.47,978.58 2737.44,895.9C2735.67,752.3 2845.22,632.48 2861.55,607.41C2917.18,522.05 2975.67,475.23 3000,274.71C3006.86,174.17 3040.86,92.1 3132.43,36.06C3224,-19.98 3381,-12.77 3478.77,72.23C3550.03,134.16 3622.84,292.68 3733.32,334.77C3832.75,372.65 3931.43,346.53 4000,302.78Z" style="fill-rule:nonzero;"/>
            </g>
        </g>
        <g transform="matrix(1,0,0,1,-23.1167,-12.5612)">
            <g transform="matrix(1,0,0,1,23.1167,13.4712)">
                <path class="background curve-3" d="M4000,606.81L4000,2450.09L0,2450.09L0,1905.22C245.64,1782.39 335.9,1897.7 574,1927.78C812.1,1957.86 955,1807.46 1000,1772.53C1074.58,1714.53 1200,1672.61 1307.63,1685.66C1440.57,1701.79 1545.03,1786.2 1616.18,1867.18C1689.26,1950.37 1764.88,1948.18 1813.32,1939.25C1847.08,1933.07 1895.32,1910.25 1973.26,1872.83C2105.08,1809.57 2297.99,1835.1 2433.69,1942.64C2474.69,1975.15 2518.42,2003.59 2551.56,2029.42C2681.39,2130.61 2876.37,2124.96 3002.78,1901.25C3027.22,1857.99 3047.96,1800.69 3071.1,1751.4C3113.1,1661.92 3215.59,1625.7 3352.46,1653.97C3469.29,1678.09 3551.36,1638.28 3581.85,1585.83C3634.57,1495.16 3605.94,1415.12 3576.16,1372.53C3530.56,1307.33 3418.37,1288.53 3312.57,1372.25C3197.16,1463.57 3062.24,1460.37 3000,1410.87C2900.91,1332.08 2923.72,1188.66 2948.63,1128.05C2960.06,1100.25 2976.31,1062.38 2966.88,1005.82C2958.08,952.98 2935.59,895.27 2904.42,840.27C2847.42,739.68 2837.29,655.27 2857.91,591.51C2897.21,469.88 2988.76,448.91 3000,267.13C3004,169.88 3048.81,87.95 3140.69,32.43C3250,-33.63 3488.56,-5.24 3518.14,177.87C3538.73,305.31 3464.87,410.87 3500.3,514.06C3531.67,605.42 3606.6,666.54 3661.79,682.28C3795.26,720.32 3935.82,657.85 4000,606.81Z" style="fill-rule:nonzero;"/>
            </g>
        </g>
        <g transform="matrix(1,0,0,1,-23.1167,-12.5612)">
            <g transform="matrix(1,0,0,1,23.1167,1507.13)">
                <path class="background curve-4" d="M4000,210.65L4000,956.43L0,956.43L0,411.57C245.64,288.74 335.9,404.05 574,434.13C812.1,464.21 955,313.81 1000,278.87C1074.58,220.87 1200,178.95 1307.63,192.01C1440.57,208.13 1545.03,292.54 1616.18,373.52C1689.26,456.71 1764.88,454.52 1813.32,445.6C1847.08,439.41 1895.32,416.55 1973.26,379.18C2105.08,315.92 2297.99,341.45 2433.69,448.98C2474.69,481.49 2518.42,509.93 2551.56,535.76C2681.39,636.96 2912.62,608.58 3002.78,407.6C3036.84,331.67 3049.41,268.84 3060.48,215.52C3076.75,137.1 3093.73,87.18 3185.3,31.14C3276.87,-24.9 3382.54,0.6 3468.65,60.74C3546.05,114.8 3624.46,204.74 3705.09,234.74C3785.72,264.74 3914.2,253.45 4000,210.65Z" style="fill-rule:nonzero;"/>
            </g>
        </g>
        <g transform="matrix(1,0,0,1,-23.1167,-12.5612)">
            <g transform="matrix(1,0,0,1,23.1167,1424.45)">
                <path class="background curve-5" d="M4000,7L4000,1039.11L0,1039.11L0,494.24C245.64,371.41 335.9,486.72 574,516.8C812.1,546.88 955,396.48 1000,361.55C1074.58,303.6 1200,261.62 1307.63,274.68C1440.57,290.8 1545,375.21 1616.18,456.2C1689.26,539.38 1764.88,537.14 1813.32,528.27C1847.08,522.08 1895.32,499.27 1973.26,461.85C2105.08,398.59 2297.99,424.12 2433.69,531.65C2474.69,564.16 2551.76,614.37 2595.85,639.65C2718.38,710.03 2910.18,678.65 3002.78,490.23C3053.25,387.54 3074.5,306.68 3078.55,255.54C3088.95,124.14 3146.55,57.24 3245.94,16.7C3358.86,-29.36 3481.25,26.08 3554.06,104.7C3618.19,173.99 3681.74,203.15 3769.06,196.54C3890.57,187.42 3968.66,81.31 4000,7Z" style="fill-rule:nonzero;"/>
            </g>
        </g>
        <g transform="matrix(1,0,0,1,4.8149,406.84)">
            <path class="triangle triangle-1" d="M2743.41,1043.78L2895.2,1129.48L2892.12,957.66L2743.41,1043.78Z" style="fill-rule:nonzero;"/>
        </g>
        <g transform="matrix(1,0,0,1,4.8149,406.84)">
            <path class="triangle triangle-2" d="M2876.37,1282.5L2930.79,1213.5L2844.95,1201.76L2876.37,1282.5Z" style="fill-rule:nonzero;"/>
        </g>
        <g transform="matrix(1,0,0,1,4.8149,406.84)">
            <path class="triangle triangle-3" d="M1053.01,1101.1L1064.02,1013.91L984.44,1048.16L1053.01,1101.1Z" style="fill-rule:nonzero;"/>
        </g>
        <g transform="matrix(1,0,0,1,4.8149,406.84)">
            <g transform="matrix(1,0,0,1,-4.8149,-406.84)">
                <path class="triangle triangle-4" d="M2790.59,1354.26L2930.88,1457.72L2948.63,1286.79L2790.59,1354.26Z" style="fill-rule:nonzero;"/>
            </g>
        </g>
        <g transform="matrix(1,0,0,1,4.8149,406.84)">
            <g transform="matrix(1,0,0,1,-18.1167,1074.26)">
                <path class="triangle triangle-5" d="M2780.57,476.52L2920.86,579.97L2938.61,409.05L2780.57,476.52Z" style="fill-rule:nonzero;"/>
            </g>
        </g>
        <g transform="matrix(1,0,0,1,4.8149,406.84)">
            <g transform="matrix(1,0,0,1,-18.1167,991.579)">
                <path class="triangle triangle-6" d="M2752.6,508.97L2807.02,439.97L2721.19,428.23L2752.6,508.97Z" style="fill-rule:nonzero;"/>
            </g>
        </g>
    </g>

	<defs>
		<linearGradient id="_FooterHomepage" x1="0" y1="0" x2="1" y2="0" gradientUnits="userSpaceOnUse" gradientTransform="matrix(747.49,2053.71,-2053.71,747.49,1782.68,524.52)">
			<stop offset="0" style="stop-color:rgb(242,65,65);stop-opacity:1" />
			<stop offset="0.18" style="stop-color:rgb(216,60,95);stop-opacity:1" />
			<stop offset="0.57" style="stop-color:rgb(165,50,153);stop-opacity:1" />
			<stop offset="0.85" style="stop-color:rgb(134,43,188);stop-opacity:1" />
			<stop offset="1" style="stop-color:rgb(122,41,202);stop-opacity:1" />
		</linearGradient>
		<linearGradient id="_FooterSchools" x1="0" y1="0" x2="1" y2="0" gradientUnits="userSpaceOnUse" gradientTransform="matrix(747.49,2053.71,-2053.71,747.49,1782.68,524.52)">
			<stop offset="0" style="stop-color:rgb(88,182,71);stop-opacity:1" />
			<stop offset="1" style="stop-color:rgb(161,200,53);stop-opacity:1" />
		</linearGradient>
		<linearGradient id="_FooterHomes" x1="0" y1="0" x2="1" y2="0" gradientUnits="userSpaceOnUse" gradientTransform="matrix(791.35,2174.2,-2174.2,791.35,1743.95,536.92)">
			<stop offset="0" style="stop-color:rgb(142,93,202);stop-opacity:1" />
			<stop offset="0.25" style="stop-color:rgb(138,94,201);stop-opacity:1" />
			<stop offset="0.47" style="stop-color:rgb(127,98,197);stop-opacity:1" />
			<stop offset="0.69" style="stop-color:rgb(109,104,191);stop-opacity:1" />
			<stop offset="0.9" style="stop-color:rgb(83,113,182);stop-opacity:1" />
			<stop offset="1" style="stop-color:rgb(68,118,177);stop-opacity:1" />
		</linearGradient>
		<linearGradient id="_FooterBusiness" x1="0" y1="0" x2="1" y2="0" gradientUnits="userSpaceOnUse" gradientTransform="matrix(878.74,2414.3,-2414.3,878.74,1651.43,570.77)">
			<stop offset="0" style="stop-color:rgb(233,126,66);stop-opacity:1" />
			<stop offset="0.32" style="stop-color:rgb(233,126,66);stop-opacity:1" />
			<stop offset="0.48" style="stop-color:rgb(235,130,64);stop-opacity:1" />
			<stop offset="0.65" style="stop-color:rgb(239,143,59);stop-opacity:1" />
			<stop offset="0.83" style="stop-color:rgb(247,165,49);stop-opacity:1" />
			<stop offset="0.91" style="stop-color:rgb(251,177,44);stop-opacity:1" />
			<stop offset="1" style="stop-color:rgb(251,177,44);stop-opacity:1" />
		</linearGradient>
		<linearGradient id="_FooterPartners" x1="0" y1="0" x2="1" y2="0" gradientUnits="userSpaceOnUse" gradientTransform="matrix(644.57,1770.94,-1770.94,644.57,1709.23,-215.34)"><stop offset="0" style="stop-color:rgb(70,111,181);stop-opacity:1"/><stop offset="0.22" style="stop-color:rgb(65,113,183);stop-opacity:1"/><stop offset="0.48" style="stop-color:rgb(52,120,189);stop-opacity:1"/><stop offset="0.74" style="stop-color:rgb(29,132,199);stop-opacity:1"/><stop offset="1" style="stop-color:rgb(0,147,211);stop-opacity:1"/></linearGradient>
        <linearGradient id="_FooterContact" x1="0" y1="0" x2="1" y2="0" gradientUnits="userSpaceOnUse" gradientTransform="matrix(2272.43,2272.43,-2272.43,2272.43,985.59,-491.35)"><stop offset="0" style="stop-color:rgb(242,65,65);stop-opacity:1"/><stop offset="1" style="stop-color:rgb(122,41,202);stop-opacity:1"/></linearGradient>
	</defs>
</svg>
