<?xml version="1.0" encoding="UTF-8" standalone="no"?>
<!DOCTYPE svg PUBLIC "-//W3C//DTD SVG 1.1//EN" "http://www.w3.org/Graphics/SVG/1.1/DTD/svg11.dtd">
<svg viewBox="0 0 463 48" version="1.1" xmlns="http://www.w3.org/2000/svg" xmlns:xlink="http://www.w3.org/1999/xlink" xml:space="preserve" xmlns:serif="http://www.serif.com/" style="fill-rule:evenodd;clip-rule:evenodd;stroke-linejoin:round;stroke-miterlimit:2;">
    <path d="M377.67,22.667L375.503,22.667L373.056,22.651L366.753,33.362L370.216,39.263L380.5,39.263L382.811,35.334L383.969,33.369L377.67,22.667Z" style="fill:rgb(147,200,63);"/>
    <path d="M375.352,22.652L373.048,18.738L362.765,18.738L360.461,22.652L360.454,22.652L360.458,22.659L360.454,22.667L360.461,22.667L367.908,35.318L375.352,22.667L375.361,22.667L375.356,22.659L375.361,22.652L375.352,22.652Z" style="fill:rgb(83,191,162);"/>
    <path d="M390.259,22.652L387.956,18.738L377.672,18.738L375.369,22.652L375.361,22.652L375.365,22.659L375.361,22.667L375.369,22.667L382.815,35.318L390.259,22.667L390.268,22.667L390.263,22.659L390.268,22.652L390.259,22.652Z" style="fill:rgb(242,233,11);"/>
    <path d="M385.662,10L382.815,10L375.361,22.666L390.268,22.666L391.976,19.762L385.662,10Z" style="fill:rgb(251,177,44);"/>
    <path d="M365.058,10L367.907,10L375.361,22.666L360.454,22.666L358.744,19.762L365.058,10Z" style="fill:rgb(0,147,211);"/>
    <path d="M375.361,22.667L390.268,22.667L382.815,10.001L375.361,22.667Z" style="fill:rgb(251,177,44);"/>
    <path d="M360.454,22.667L375.361,22.667L367.908,10.001L360.454,22.667Z" style="fill:rgb(0,147,211);"/>
    <path d="M382.814,35.334L367.907,35.334L375.361,48L382.814,35.334Z" style="fill:rgb(88,182,71);"/>
    <path d="M375.361,22.652L360.454,22.652L367.907,35.318L375.361,22.652Z" style="fill:rgb(83,191,162);"/>
    <path d="M390.268,22.667L375.361,22.667L382.814,35.334L390.268,22.667Z" style="fill:rgb(242,233,11);"/>
    <path d="M367.907,35.334L382.815,35.334L375.361,22.666L367.907,35.334Z" style="fill:rgb(147,200,63);"/>
    <path d="M397.722,10L382.814,10L390.268,22.666L397.722,10Z" style="fill:rgb(255,94,141);"/>
    <path d="M367.907,10L353,10L360.454,22.666L367.907,10Z" style="fill:rgb(70,111,181);"/>
    <path class="name" d="M70.774,9.268C68.241,9.268 66.138,7.515 66.138,4.51C66.138,1.671 68.241,0 70.774,0C73.381,0 75.409,1.671 75.409,4.592C75.409,7.515 73.381,9.268 70.774,9.268ZM65.868,47.377L65.891,14.016L75.657,14.016L75.633,47.377L65.868,47.377ZM129.175,25.619L129.175,47.377L138.941,47.377L138.941,25C138.941,13.635 133.349,9.106 125.534,9.106C120.119,9.106 116.564,12.303 114.791,15.585C112.482,11.057 108.13,8.838 103.334,9.193C99.429,9.638 96.674,11.857 94.987,14.699L94.987,12.761L85.399,9.106L85.399,47.377L95.078,47.377L95.078,30.151C95.078,21.181 96.233,17.186 101.115,17.186C105.112,17.186 107.244,19.495 107.244,25L107.244,47.377L116.919,47.377L116.919,30.151C116.919,22.427 117.81,17.186 123.138,17.186C127.221,17.186 129.175,20.204 129.175,25.619ZM211.086,47.732C210.751,47.732 210.326,47.745 209.798,47.761C208.93,47.788 207.782,47.823 206.289,47.823C196.701,47.823 193.414,43.381 193.414,33.26L193.414,17.899L186.667,17.899L188.709,10.261L193.414,10.261L193.414,0.405L203.184,4.051L203.184,10.261L212.15,10.261L212.15,17.899L203.184,17.899L203.184,33.438C203.184,37.43 203.802,39.208 206.203,39.74C208.154,40.185 210.377,40.094 212.95,39.83L211.086,47.732ZM242.784,23.846L225.912,23.846C227.153,19.317 230.349,16.744 234.436,16.744C238.874,16.744 242.251,19.231 242.784,23.846ZM236.21,40.094C230.44,40.094 225.735,37.075 225.557,31.038L251.131,31.038C251.131,31.038 251.309,28.91 251.309,26.955C251.309,15.944 243.761,9.552 234.168,9.552C223.871,9.552 215.965,17.186 215.965,28.729C215.965,40.54 223.603,48 236.033,48C240.828,48 245.27,47.109 250.418,43.559L245.89,36.634C243.67,38.321 240.919,40.094 236.21,40.094ZM46.26,0.404L46.26,47.34L55.504,47.378L56.025,47.378L56.025,4.051L46.26,0.404ZM162.966,39.208C168.649,39.208 172.2,34.061 172.2,24.914L172.2,19.14C172.193,19.135 172.184,19.13 172.174,19.124L172.173,19.124C172.163,19.118 172.153,19.112 172.146,19.107L172.146,17.099L164.385,17.099C157.725,17.099 154.442,22.427 154.442,28.733C154.442,34.592 156.928,39.208 162.966,39.208ZM163.273,9.135L163.187,9.106L181.788,9.106L181.788,47.377L172.2,47.377L172.2,40.362C170.69,43.117 167.404,47.377 161.102,47.377C150.532,47.377 144.585,39.562 144.585,28.642C144.585,17.834 151.27,9.443 163.273,9.135ZM327.703,23.834L344.575,23.834C344.042,19.22 340.666,16.733 336.228,16.733C332.141,16.733 328.944,19.307 327.703,23.834ZM327.348,31.027C327.526,37.065 332.232,40.083 338.002,40.083C342.71,40.083 345.461,38.31 347.681,36.623L352.21,43.548C347.062,47.099 342.622,47.989 337.824,47.989C325.394,47.989 317.758,40.529 317.758,28.718C317.758,17.174 325.663,9.541 335.959,9.541C345.552,9.541 353.1,15.933 353.1,26.944C353.1,28.899 352.922,31.027 352.922,31.027L327.348,31.027ZM424.762,23.834L407.89,23.834C409.13,19.307 412.327,16.733 416.414,16.733C420.852,16.733 424.229,19.22 424.762,23.834ZM418.188,40.083C412.418,40.083 407.714,37.065 407.534,31.027L433.109,31.027C433.109,31.027 433.286,28.899 433.286,26.944C433.286,15.933 425.738,9.541 416.146,9.541C405.85,9.541 397.942,17.174 397.942,28.718C397.942,40.529 405.581,47.989 418.01,47.989C422.806,47.989 427.248,47.099 432.396,43.548L427.867,36.623C425.647,38.31 422.897,40.083 418.188,40.083ZM450.682,35.023L450.682,47.366L441.002,47.366L441.002,9.634L450.682,9.634L450.682,16.11C451.481,13.269 455.124,9.804 460.097,9.627C460.982,9.54 461.693,9.54 462.578,9.627C462.403,10.511 462.162,12.249 461.92,13.993L461.92,13.994L461.919,13.997L461.919,14C461.675,15.761 461.43,17.527 461.251,18.42C451.927,18.242 450.682,25.167 450.682,35.023ZM300.103,47.507L300.103,0.94L309.869,4.586L309.869,47.507L300.103,47.507ZM0,24.445C0,9.113 10.666,1.036 24.221,1.036C33.478,1.036 39.036,5.111 39.036,5.111L38.219,14.148C38.219,14.148 32.814,9.483 25.036,9.483C17.999,9.483 11.112,14.297 11.112,24.37C11.112,34 17.332,39.406 25.109,39.406C32.739,39.406 37.108,34.741 37.108,34.741L41.403,42.297C35.924,46.444 30.442,48 24.295,48C10.815,48 0,39.778 0,24.445ZM278.064,1.036C264.509,1.036 253.843,9.113 253.843,24.445C253.843,39.778 264.66,48 278.141,48C284.287,48 289.769,46.444 295.248,42.297L290.952,34.741C290.952,34.741 286.584,39.406 278.954,39.406C271.176,39.406 264.958,34 264.958,24.37C264.958,14.297 271.843,9.483 278.88,9.483C286.658,9.483 292.063,14.148 292.063,14.148L292.879,5.111C292.879,5.111 287.323,1.036 278.064,1.036Z"/>
</svg>
